<?xml version="1.0" encoding="UTF-8" standalone="no"?><!DOCTYPE svg PUBLIC "-//W3C//DTD SVG 1.1//EN" "http://www.w3.org/Graphics/SVG/1.1/DTD/svg11.dtd"><svg width="100%" height="100%" viewBox="0 0 1792 1792" version="1.1" xmlns="http://www.w3.org/2000/svg" xmlns:xlink="http://www.w3.org/1999/xlink" xml:space="preserve" xmlns:serif="http://www.serif.com/" style="fill-rule:evenodd;clip-rule:evenodd;stroke-linejoin:round;stroke-miterlimit:2;"><path fill="var(--icon-color-accent, #ff8700)" d="M768,890l546,546c-70.667,72 -153.167,128 -247.5,168c-94.333,40 -193.833,60 -298.5,60c-139.333,0 -267.833,-34.333 -385.5,-103c-117.667,-68.667 -210.833,-161.833 -279.5,-279.5c-68.667,-117.667 -103,-246.167 -103,-385.5c0,-139.333 34.333,-267.833 103,-385.5c68.667,-117.667 161.833,-210.833 279.5,-279.5c117.667,-68.667 246.167,-103 385.5,-103l0,762Zm187,6l773,0c0,104.667 -20,204.167 -60,298.5c-40,94.333 -96,176.833 -168,247.5l-545,-546Zm709,-128l-768,0l0,-768c139.333,0 267.833,34.333 385.5,103c117.667,68.667 210.833,161.833 279.5,279.5c68.667,117.667 103,246.167 103,385.5Z" /></svg>
